<svg xmlns="http://www.w3.org/2000/svg" viewBox="0 0 812.79 517"><defs><style>.cls-1{fill:#ffa400;}.cls-2{fill:none;}.cls-3,.cls-4{fill:#fff;}.cls-4{font-size:200.13px;font-family:Handlee-Regular, Handlee;}.cls-5{letter-spacing:-0.02em;}</style></defs><g id="Ebene_2" data-name="Ebene 2"><g id="Ebene_1-2" data-name="Ebene 1"><rect class="cls-1" x="3.94" width="808.85" height="517" rx="11.21"/><path class="cls-2" d="M520.94,59.58V258.05H291.62V29.19H520.94v21c-.29-1.75-.61-3.5-.85-5.25-.94-6.56-6.22-11.79-12.66-12.18-13.24-.81-25.84,1.83-36.76,9.36-8.3,5.73-15.85,12.57-23.47,19.22a28.17,28.17,0,0,0-9.88,19.89,97.7,97.7,0,0,0,.37,14.71,23.1,23.1,0,0,1-7,19.39q-54.23,55.44-108.23,111.1c-4.06,4.16-5.93,9-5,14.81,1.25,7.8,5.57,13,13.13,15.34s14.24,0,19.27-6.23l37.45-46.44q30.17-37.4,60.3-74.8c3.89-4.84,8.69-7.83,14.94-8.28,4.23-.31,8.47-.52,12.7-.86,9.32-.77,17.1-4.65,22.72-12.14,4.59-6.14,8.77-12.58,13-19a56.82,56.82,0,0,0,8.15-19.21C519.89,66.33,520.35,62.94,520.94,59.58ZM357.92,84a13.48,13.48,0,0,0-1.38-1.93q-18.15-18.2-36.34-36.36a13.5,13.5,0,0,0-1.81-1.66,3.35,3.35,0,0,0-4.69,4.68,12.26,12.26,0,0,0,1.66,1.8q18.24,18.27,36.5,36.52c.55.55,1.07,1.13,1.34,1.42L351,91.65c-.84-1-1.34-1.65-1.91-2.23L312.23,52.6c-2.16-2.15-4-2.41-5.63-.83s-1.35,3.47.76,5.64l1.27,1.26,35.71,35.72c.56.56,1.09,1.15,1.62,1.71-2.43,3.12-3.25,3.19-5.86.58L324.77,81.36Q315.61,72.19,306.44,63c-2.18-2.2-4.69-3.45-7.83-2.79-6.36,1.32-8.53,8.38-4.15,13.6Q313,96,331.7,118.13A27,27,0,0,0,349,127.88a130.69,130.69,0,0,0,17.15.69,20.91,20.91,0,0,1,16.71,7.52c1.4,1.64,2.87,3.23,4.37,4.78,1.67,1.73,3.69,1.91,5.14.57s1.54-3.3-.11-5.16c-2.22-2.51-4.45-5-6.84-7.36a22.4,22.4,0,0,0-14-6.75c-5.41-.43-10.86-.28-16.29-.46-7.57-.24-14-2.89-18.95-8.87-6.65-8-13.41-16-20.12-24C310.69,82.5,305.3,76.14,300,69.7c-.47-.57-.34-1.65-.48-2.49a15.92,15.92,0,0,1,2.26.91,9.42,9.42,0,0,1,1.44,1.39l32.07,32.09c5.22,5.22,10,5.19,15.26-.07L364,88.09c5-5,4.95-9.91-.06-14.93Q347.56,56.8,331.19,40.45c-.37-.37-.86-.67-1.07-1.12a12,12,0,0,1-.61-2.09c.71.08,1.43.12,2.13.26.25.06.46.36.69.55q21.54,18.12,43.08,36.25a22.5,22.5,0,0,1,8.28,16.23c.33,4.74.31,9.52.31,14.28,0,5.69,1.25,11.06,4.8,15.49,2.77,3.45,6.19,6.41,9.42,9.49,1.86,1.77,3.9,1.75,5.3.19s1.06-3.54-.79-5.3c-1.68-1.58-3.42-3.11-5.12-4.66a19.85,19.85,0,0,1-6.76-15.23c0-4.1.1-8.2,0-12.29-.32-9.11-3.41-17-10.51-23Q358.46,51,336.53,32.64a15.56,15.56,0,0,0-1.95-1.5,7.75,7.75,0,0,0-8.27-.14,7.62,7.62,0,0,0-4,7c0,2.66,1.31,4.63,3.12,6.43Q342.24,61.19,359,78C361.53,80.52,361.43,81.4,357.92,84ZM519.61,238.37a16.76,16.76,0,0,0-5.94-12.67q-36-32.77-72-65.59c-2.78-2.54-4.73-2.85-6.31-1s-.94,3.66,1.68,6.06l71.87,65.45a11,11,0,0,1,1.69,15.08c-3.66,5.21-12.53,6.81-17.66,1.12-21.22-23.59-42.68-47-64.05-70.43a14.21,14.21,0,0,0-1.74-1.73,3.34,3.34,0,0,0-4.86,4.49,19.63,19.63,0,0,0,2,2.38q31.9,35,63.83,70a18.11,18.11,0,0,0,3.89,3.32C503.91,262.11,519.23,253.22,519.61,238.37Z"/><path class="cls-3" d="M520.94,59.58c-.59,3.36-1.05,6.75-1.8,10.07A56.82,56.82,0,0,1,511,88.86c-4.23,6.39-8.41,12.83-13,19-5.62,7.49-13.4,11.37-22.72,12.14-4.23.34-8.47.55-12.7.86-6.25.45-11.05,3.44-14.94,8.28q-30.11,37.44-60.3,74.8l-37.45,46.44c-5,6.25-11.7,8.53-19.27,6.23s-11.88-7.54-13.13-15.34c-.92-5.82.95-10.65,5-14.81q54.11-55.56,108.23-111.1a23.1,23.1,0,0,0,7-19.39,97.7,97.7,0,0,1-.37-14.71,28.17,28.17,0,0,1,9.88-19.89c7.62-6.65,15.17-13.49,23.47-19.22,10.92-7.53,23.52-10.17,36.76-9.36,6.44.39,11.72,5.62,12.66,12.18.24,1.75.56,3.5.85,5.25Zm-7-7.09c-.16-1.53-.35-3.9-.66-6.26A7.38,7.38,0,0,0,506,39.49c-11.45-.37-22.45,1.86-31.79,8.53a258.48,258.48,0,0,0-23.76,19.89c-4.42,4-6.42,9.65-6.41,15.72,0,4.61.23,9.23.56,13.83.65,8.84-2.47,16-8.61,22.33-36.23,37.09-72.28,74.34-108.6,111.34-5.49,5.59-3.4,16,4.34,18.62,4.5,1.52,9.1,1.1,13.5-4.38q48.65-60.65,97.54-121.09c4.55-5.65,10.28-9.24,17.52-10.09,4.28-.51,8.6-.74,12.92-.92A25.26,25.26,0,0,0,494,101.78q5-7.27,9.92-14.58A57.1,57.1,0,0,0,514,52.49Z"/><path class="cls-3" d="M357.92,84c3.51-2.62,3.61-3.5,1.05-6.06q-16.74-16.75-33.5-33.5c-1.81-1.8-3.13-3.77-3.12-6.43a7.62,7.62,0,0,1,4-7,7.75,7.75,0,0,1,8.27.14,15.56,15.56,0,0,1,1.95,1.5Q358.43,51,380.3,69.46c7.1,6,10.19,13.93,10.51,23,.14,4.09,0,8.19,0,12.29A19.85,19.85,0,0,0,397.61,120c1.7,1.55,3.44,3.08,5.12,4.66,1.85,1.76,2.14,3.8.79,5.3s-3.44,1.58-5.3-.19c-3.23-3.08-6.65-6-9.42-9.49-3.55-4.43-4.81-9.8-4.8-15.49,0-4.76,0-9.54-.31-14.28a22.5,22.5,0,0,0-8.28-16.23q-21.54-18.11-43.08-36.25c-.23-.19-.44-.49-.69-.55-.7-.14-1.42-.18-2.13-.26a12,12,0,0,0,.61,2.09c.21.45.7.75,1.07,1.12q16.37,16.35,32.72,32.71c5,5,5,10,.06,14.93l-13.43,13.44c-5.27,5.26-10,5.29-15.26.07L303.21,69.51a9.42,9.42,0,0,0-1.44-1.39,15.92,15.92,0,0,0-2.26-.91c.14.84,0,1.92.48,2.49,5.31,6.44,10.7,12.8,16.07,19.19,6.71,8,13.47,15.92,20.12,24,4.94,6,11.38,8.63,18.95,8.87,5.43.18,10.88,0,16.29.46a22.4,22.4,0,0,1,14,6.75c2.39,2.34,4.62,4.85,6.84,7.36,1.65,1.86,1.62,3.75.11,5.16s-3.47,1.16-5.14-.57c-1.5-1.55-3-3.14-4.37-4.78a20.91,20.91,0,0,0-16.71-7.52,130.69,130.69,0,0,1-17.15-.69,27,27,0,0,1-17.31-9.75Q313.07,96,294.46,73.84c-4.38-5.22-2.21-12.28,4.15-13.6,3.14-.66,5.65.59,7.83,2.79q9.15,9.18,18.33,18.33L340.1,96.68c2.61,2.61,3.43,2.54,5.86-.58-.53-.56-1.06-1.15-1.62-1.71L308.63,58.67l-1.27-1.26c-2.11-2.17-2.37-4-.76-5.64s3.47-1.32,5.63.83l36.82,36.82c.57.58,1.07,1.25,1.91,2.23l2.24-3.16c-.27-.29-.79-.87-1.34-1.42q-18.25-18.27-36.5-36.52a12.26,12.26,0,0,1-1.66-1.8,3.35,3.35,0,0,1,4.69-4.68,13.5,13.5,0,0,1,1.81,1.66q18.18,18.17,36.34,36.36A13.48,13.48,0,0,1,357.92,84Z"/><path class="cls-3" d="M519.61,238.37c-.38,14.85-15.7,23.74-27.64,16.51a18.11,18.11,0,0,1-3.89-3.32q-31.95-35-63.83-70a19.63,19.63,0,0,1-2-2.38,3.34,3.34,0,0,1,4.86-4.49,14.21,14.21,0,0,1,1.74,1.73c21.37,23.46,42.83,46.84,64.05,70.43,5.13,5.69,14,4.09,17.66-1.12a11,11,0,0,0-1.69-15.08L437,165.17c-2.62-2.4-3.17-4.32-1.68-6.06s3.53-1.54,6.31,1q36,32.8,72,65.59A16.76,16.76,0,0,1,519.61,238.37Z"/><path class="cls-2" d="M514,52.49A57.1,57.1,0,0,1,504,87.2Q499,94.49,494,101.78a25.26,25.26,0,0,1-20.86,11.49c-4.32.18-8.64.41-12.92.92-7.24.85-13,4.44-17.52,10.09q-48.78,60.54-97.54,121.09c-4.4,5.48-9,5.9-13.5,4.38-7.74-2.6-9.83-13-4.34-18.62,36.32-37,72.37-74.25,108.6-111.34,6.14-6.29,9.26-13.49,8.61-22.33-.33-4.6-.56-9.22-.56-13.83,0-6.07,2-11.69,6.41-15.72A258.48,258.48,0,0,1,474.17,48c9.34-6.67,20.34-8.9,31.79-8.53a7.38,7.38,0,0,1,7.37,6.74C513.64,48.59,513.83,51,514,52.49Z"/><text class="cls-4" transform="translate(55.61 430.6)">Coo<tspan class="cls-5" x="343.82" y="0">k</tspan><tspan x="434.87" y="0">ery</tspan></text></g></g></svg>